<svg width="290" height="58" viewBox="0 0 290 58" fill="none" xmlns="http://www.w3.org/2000/svg">
<path d="M226.431 41.9854C225.904 42.2235 225.323 42.4993 224.718 42.3856C223.322 42.123 222.532 41.2037 222.946 39.2588C220.638 39.4986 218.737 38.0814 219.236 35.43C219.376 34.6858 219.749 33.9853 220.421 33.4856C219.665 33.1508 219.36 32.4673 219.389 31.7986C219.413 31.4177 219.585 31.0166 219.951 30.604C218.992 30.3271 218.579 29.9605 218.068 29.0937C217.245 29.3723 216.512 29.4271 215.853 29.351C214.626 29.2165 213.632 28.3552 213.912 26.8667C214.017 26.3086 214.41 25.7564 215.483 25.4285C215.271 24.7625 215.248 24.3729 215.362 23.7682C215.598 22.5123 216.43 21.4167 217.826 21.6793C218.291 21.7668 218.861 22.0667 219.236 22.378C219.925 21.7853 220.286 21.6605 221.28 21.7513C221.283 21.2221 221.316 20.7947 221.415 20.5244C221.502 20.0593 221.822 19.6379 222.773 19.1907C222.338 18.4345 221.96 17.8818 222.161 16.8119C222.371 15.6956 223.041 14.9546 224.506 14.845C224.649 14.3421 225.278 12.534 227.54 13.056C229.29 13.4816 229.138 14.8015 229.082 15.6098C230.326 16.4218 231.207 17.1173 230.883 18.8383C230.813 19.2105 230.658 19.5186 230.513 19.7802C230.376 19.9952 230.239 20.2103 230.204 20.3964L230.364 20.5709C230.477 20.7367 230.666 21.0131 230.669 21.2544L230.678 21.2079C230.794 21.615 230.721 21.7458 230.66 22.0714L230.59 22.4435C230.52 22.8156 230.383 23.0307 230.237 23.2923C230.109 23.4609 229.999 23.5364 229.964 23.7224C231.22 23.9588 231.65 24.2324 232.544 25.364C233.013 24.9223 233.635 24.9431 234.007 25.0131C235.31 25.2582 236.088 26.7532 235.852 28.0091C235.747 28.5673 234.938 29.282 234.44 29.6219C234.274 31.2762 233.81 32.971 231.717 32.5771C230.973 32.437 230.551 32.1169 230.153 31.416C229.415 31.7586 228.394 31.8073 227.609 31.3707C227.688 31.7226 227.792 32.7054 227.239 33.083C227.873 33.2986 228.178 33.982 227.927 34.8018C228.639 34.5988 229.427 34.5062 230.168 35.1754C230.689 34.4547 231.608 34.4349 232.445 34.5925C233.376 34.7676 234.256 35.463 234.305 36.4836C234.366 36.9285 234.188 37.6175 233.83 37.9836C234.179 38.4345 234.35 38.8039 234.356 39.2865C234.366 41.0223 232.656 42.4343 230.56 41.7991C230.44 42.6916 229.579 43.6855 228.276 43.4404C227.439 43.2828 226.82 42.7329 226.431 41.9854Z" fill="white"/>
<path d="M153.689 44.1624C152.19 44.6016 151.021 43.8098 150.176 42.7753C148.73 43.3962 147.316 41.9364 146.956 40.71C146.703 39.847 146.763 39.0404 146.913 38.2071C145.487 37.8852 145.325 36.9956 145.213 36.7818C144.902 35.8867 145.071 34.9493 145.403 34.0628C144.912 33.5655 144.218 32.881 144.005 32.1543C143.473 30.3374 144.5 29.2967 145.748 28.339C145.793 28.3257 145.871 28.2537 145.871 28.2537C145.687 27.9624 145.562 27.7031 145.482 27.4306C144.606 24.7774 146.515 22.5409 147.423 22.2747C149.457 21.1362 150.34 21.9624 150.744 21.9922C151.418 20.7588 152.466 19.9585 154.01 19.506C155.963 18.9336 157.805 20.1695 158.992 21.6959C159.394 20.5423 160.175 19.6723 161.492 19.2864C161.765 19.2065 162.018 19.2308 162.35 19.183C162.821 17.7625 163.805 17.0797 165.304 16.6404C167.166 16.0947 169.009 16.4918 170.035 18.3119C171.006 17.5836 171.407 17.2688 172.406 16.976C174.223 16.4436 175.632 17.2143 176.191 19.122C176.284 19.4399 176.332 19.7712 176.295 19.9795C176.289 20.1291 176.265 20.3828 176.318 20.5645C177.299 20.3758 178.853 20.4628 179.212 21.6892C179.452 22.5068 179.08 23.257 178.708 24.0072C180.284 24.3346 181.175 25.3559 181.614 26.8548C181.973 28.0812 182.106 29.3741 181.079 30.4148C181.452 30.8479 181.788 31.4893 181.948 32.0343C182.374 33.4878 182.129 35.6805 180.448 36.173C179.267 36.5191 178.367 36.1416 177.996 36.053C177.809 36.2559 177.688 36.6858 176.326 37.0851C174.872 37.511 173.395 37.352 172.903 35.6714C172.663 34.8538 172.753 33.6439 172.903 32.8106C171.034 32.3227 170.075 31.913 169.503 29.9599C169.237 29.0515 169.104 28.5973 169.209 27.7773C168.482 27.9903 168.02 27.9284 167.446 27.6527L167.234 28.1093C167.132 28.435 166.645 29.4656 166.394 29.7859C166.637 30.1093 166.911 30.374 167.114 30.5612C167.547 31.0264 168.07 31.465 168.283 32.1917C168.695 33.5998 168.25 35.1112 167.314 36.1253C167.655 37.4558 167.111 38.7988 165.658 39.2247C162.615 40.1165 160.792 38.7765 160.259 36.9596C159.94 35.8695 160.17 35.3088 160.216 35.2955C159.548 34.7019 159.097 34.3408 158.818 33.387C158.671 32.8873 158.798 32.3078 158.787 31.7683L157.693 31.3986C157.132 31.1683 156.668 30.7619 156.307 30.3742C155.823 30.9106 155.537 30.945 154.902 31.1314C155.905 32.3664 156.611 33.935 155.648 35.697C156.387 36.3682 156.806 36.7879 157.085 37.7418C157.485 39.1044 156.693 40.2736 155.683 40.8656C155.838 42.7435 155.279 43.6965 153.689 44.1624Z" fill="white"/>
<path d="M195.406 48.0853C194.769 48.3981 194.094 48.6556 193.489 48.5411C191.397 48.1447 190.143 47.1363 189.99 44.8914C189.702 44.885 189.33 44.8145 189.097 44.7705C187.098 44.3917 185.816 42.511 186.213 40.4183C186.398 39.4417 186.784 38.166 188.567 37.3959C187.16 35.925 186.696 35.0664 187.075 33.0667C187.551 30.5554 189.857 29.0653 192.06 29.3863C192.662 27.4772 194.098 26.2558 196.656 26.7403C197.447 26.8901 198.129 27.3566 198.701 27.8985C199.469 27.6586 200.469 27.4628 201.399 27.639C202.422 27.8328 203.415 28.6953 203.835 29.7864C205.078 28.8176 206.553 28.6634 208.18 28.9717C208.366 29.0069 209.177 29.305 209.392 29.4421C210.101 29.7691 210.489 30.517 210.764 31.0991C211.152 31.847 211.31 32.7923 211.134 33.7224C211.028 34.2804 209.923 36.0462 209.376 36.1353C210.436 37.1549 211.393 38.2034 211.129 39.5986C210.926 40.6682 210.332 41.519 209.287 41.9473C209.139 41.9674 208.621 42.1583 208.315 42.245C209.503 43.0962 212.907 44.7047 212.238 48.239C211.806 50.5177 209.496 51.5252 207.217 51.0935C206.008 50.8645 204.144 49.2589 203.527 47.9377C202.671 48.6426 201.994 48.6588 201.088 48.1018C200.956 48.7993 199.917 50.7222 198.057 50.3698C196.941 50.1584 195.788 49.1211 195.406 48.0853ZM196.48 36.8234C196.225 38.1721 196.796 38.7139 198.098 38.9606C198.656 39.0663 198.99 38.0697 199.087 37.5581C199.21 36.9071 198.694 36.3275 198.089 36.213C197.484 36.0984 196.647 35.9398 196.48 36.8234Z" fill="white"/>
<path d="M253.183 49.6815C251.481 49.6115 250.055 48.5581 248.823 47.4179C248.303 47.3965 247.868 47.6154 247.253 47.5901C244.368 47.4715 242.388 44.9268 242.505 42.0893C242.517 41.8055 242.621 41.573 242.682 41.2439C241.192 40.6142 240.165 39.1034 240.231 37.4955C240.31 35.5565 241.179 34.0289 242.863 33.3876C242.23 29.1929 245.829 26.925 249.102 27.9596C250.588 25.2258 252.951 25.3703 253.613 25.3976C256.687 25.524 257.994 27.141 258.545 28.7269C261.335 28.8416 263.901 29.7998 263.761 33.2048C263.738 33.7723 263.577 34.2394 263.417 34.6592C263.258 35.079 263.1 35.4515 263.085 35.8298C263.079 35.9717 263.402 36.1745 263.674 36.4699C264.451 37.165 265.589 38.3014 265.528 39.7674C265.445 41.8009 263.95 42.45 262.403 43.1918C262.573 43.6725 262.65 44.102 262.632 44.5276C262.596 46.5631 260.654 47.7149 258.539 47.2963C256.954 48.9839 255.5 49.7768 253.183 49.6815ZM252.75 42.9369C253.199 43.5239 253.946 43.7914 254.656 43.8206C255.842 43.7746 256.145 43.3134 256.167 42.7932C256.182 42.4149 256.19 42.2257 255.812 42.2101C255.575 42.2004 255.423 42.431 255.276 42.5671C255.079 42.7485 254.931 42.8845 254.695 42.8748C253.465 42.8242 253.366 41.778 253.409 40.7375L253.44 39.9809C253.873 39.8092 254.031 39.4367 254.042 39.153C254.056 38.8219 253.693 38.428 253.078 38.4028C252.416 38.3755 251.841 38.5414 251.814 39.2034C251.802 39.4872 252.029 39.7334 252.163 39.9284L252.081 41.9146C252.068 42.2457 250.97 42.4374 250.734 42.4277C250.639 42.4238 250.499 42.3707 250.456 42.2741C250.365 42.1757 250.231 41.9807 250.042 41.9729C249.664 41.9573 249.654 42.1938 249.646 42.3829C249.619 43.045 250.072 43.5374 250.593 43.5588C251.491 43.5957 252.407 43.2071 252.75 42.9369ZM248.787 35.6209C248.762 36.2357 248.943 36.4326 249.605 36.4598C250.126 36.4812 250.323 36.2998 250.348 35.685C250.367 35.2121 250.186 35.0152 249.666 34.9938C249.004 34.9666 248.807 35.1479 248.787 35.6209ZM255.109 36.2598C255.093 36.6381 255.413 36.9355 255.885 36.9549C256.358 36.9744 256.567 36.5092 256.579 36.2255C256.598 35.7526 256.228 35.5478 255.944 35.5362C255.329 35.5109 255.132 35.6923 255.109 36.2598Z" fill="white"/>
<path d="M278.993 38.9949C277.1 38.9949 275.774 37.5276 275.964 35.6817C275.017 35.2084 274.449 34.4984 274.449 33.4571C274.449 32.7472 274.638 32.2265 275.017 31.7059L274.733 31.4692C274.544 31.4219 274.402 31.3272 274.307 31.2325C273.692 30.6646 273.455 29.9073 273.455 29.0553C273.455 28.0613 273.739 27.304 274.26 26.5941C273.361 25.7894 272.84 25.0321 272.84 23.7068C272.84 22.2869 273.455 21.2456 274.686 20.3463C274.686 18.737 276.248 17.2224 277.999 17.2224C278.567 17.2224 279.088 17.3644 279.656 17.5537C280.839 17.9797 281.028 19.4943 281.123 20.4883C283.489 20.2043 284.815 21.7189 284.815 23.8962C284.815 25.0794 284.341 26.0261 283.537 26.736C284.957 27.6827 285.099 28.9133 285.099 29.9073C285.099 30.9959 284.247 31.6585 283.395 32.2265C283.726 32.7472 283.773 33.1258 283.773 33.8358C283.773 35.2084 282.78 35.9657 281.502 36.2497C281.36 37.859 280.697 38.9949 278.993 38.9949ZM279.23 48.6506C277.62 48.6506 276.863 47.278 277.242 45.7633L276.816 45.5267C276.106 44.9114 275.585 44.0121 275.585 43.0181C275.585 42.0241 276.484 41.6928 277.289 41.6455C277.904 41.5982 278.52 41.7875 278.662 41.9295C279.04 40.8409 279.94 39.8942 281.123 39.8942C282.212 39.8942 283.158 40.7462 283.158 41.8348C283.158 42.1188 283.016 42.7815 282.874 43.1601C283.868 43.4441 284.957 43.5388 284.957 45.6213C284.957 46.8993 283.679 47.2306 282.732 47.2306C281.975 47.2306 281.88 47.1833 281.691 47.1833C281.17 48.3192 280.271 48.6506 279.23 48.6506Z" fill="white"/>
<path d="M7.38373 42.749C6.76842 42.8437 6.38976 42.7017 5.86912 42.5597C4.44917 42.0864 3.83386 41.2344 3.26588 39.8618C3.26588 39.8144 3.12388 39.3411 3.07655 39.1991C3.07655 39.1045 2.98189 38.8678 2.98189 38.8678V36.9745C2.98189 36.9745 3.07655 36.6906 3.07655 36.5959C3.07655 36.5012 3.21855 36.1226 3.21855 36.0752V35.9806C2.22458 35.2233 1.84593 34.0873 1.84593 32.8567C1.84593 32.1941 1.89326 31.4841 2.31925 30.8688C2.60324 30.2535 3.07655 29.7328 3.45521 29.2122V29.1175C3.07655 28.4549 2.6979 27.6029 2.6979 26.8456V26.6089C2.83989 25.473 3.07655 24.7157 4.07052 24.1004L4.63849 23.8164C4.63849 23.8164 4.82782 23.7217 4.87515 23.7217C4.96982 23.7217 5.20647 23.627 5.20647 23.627H6.95774C6.95774 23.0591 7.00507 22.3018 7.24173 21.6864C7.99904 20.0772 9.46631 19.3199 11.1229 19.3199C11.9749 19.3199 12.5902 19.5565 13.3475 19.8405H13.4895C14.2468 18.7046 15.4774 18.3259 16.708 17.9473C17.6073 17.6159 18.4593 17.5686 19.4533 17.5686C19.8793 17.5686 20.2579 17.5686 20.7312 17.6159C21.1099 17.7106 21.7252 17.8526 22.0092 18.0892C22.1038 18.0892 22.2458 18.3259 22.3405 18.3259C23.8551 19.7459 24.5178 20.8345 24.5178 22.9644C24.5178 23.3431 24.5178 23.8637 24.3758 24.337C24.1391 24.9523 23.8551 25.2363 23.3818 25.8043C22.3878 26.8456 21.1099 27.3189 19.5953 27.3189C19.122 27.3189 18.7433 27.2242 18.27 27.0822C18.2227 27.0822 17.6073 26.7509 17.5127 26.7509H17.4654C17.2287 27.5556 16.85 28.0762 16.1401 28.4549C15.9507 28.5969 15.3354 28.8335 15.3354 28.8335H13.8682V30.8688C13.8682 30.8688 13.8208 31.1054 13.8208 31.2001C13.4895 32.0047 12.8742 32.7147 12.2589 33.33C14.3888 34.2293 14.8621 35.6019 15.0988 37.8265H15.1461C15.7141 37.7319 16.2347 37.6845 16.85 37.6845C17.0867 37.6845 17.4654 37.6845 17.7493 37.7319C17.844 37.7319 18.27 37.9685 18.3647 38.0632C18.4593 38.0632 18.7433 38.3472 18.838 38.3472H18.8853L19.2166 38.1105C19.8319 37.7319 20.4946 37.6845 21.2045 37.6845C21.9619 37.6845 23.0978 37.5899 23.8551 37.9685C25.6064 38.7258 26.269 40.8557 26.269 42.607C26.269 43.459 26.127 44.1216 25.6064 44.8316C24.7544 45.8729 24.1391 46.6302 22.7665 46.8668C22.3878 46.9615 21.3465 47.1035 21.2519 47.1035H19.7373C19.6426 47.1035 19.3586 46.9615 19.264 46.9615L18.98 46.8195H18.8853C18.838 46.8195 18.128 47.5768 17.8913 47.7188C16.85 48.3341 15.5721 48.4761 14.3888 48.4761H13.3948C12.7322 48.3341 12.1169 48.1921 11.5016 47.8608L10.4603 47.3402C10.3656 47.3402 10.2236 47.1982 10.129 47.1035C9.13499 46.2042 8.37769 45.2102 7.85704 43.9796C7.71505 43.601 7.62038 43.1277 7.38373 42.749ZM7.71505 41.2344C8.37769 41.2344 8.47235 42.465 8.61435 42.9383C8.70901 43.317 8.94567 43.6956 9.08766 43.9796C9.37165 44.5949 9.84497 45.2102 10.271 45.7309C10.8863 46.4409 11.7382 46.8195 12.5902 47.1035C13.1108 47.3402 13.7262 47.4348 14.3415 47.4348C15.3354 47.4348 16.2347 47.1982 17.134 46.8668L17.3234 46.8195C17.8913 46.4409 17.8913 45.4942 18.6013 45.4942C19.0746 45.4942 19.4533 45.7309 19.8319 45.9675H21.4885C21.5832 45.9675 22.6245 45.8256 22.9558 45.7309C23.4765 45.6836 23.9498 45.1156 24.2338 44.7369C24.9911 43.9796 25.1331 43.601 25.1331 42.5597C25.1331 41.471 24.8964 40.5717 24.3284 39.7198C24.0918 39.4358 23.9498 39.1991 23.5238 39.0571C22.8612 38.7258 21.9619 38.8205 21.2519 38.8205H20.4472C19.264 38.9625 19.7373 39.9564 18.98 39.9564C18.5066 39.9564 18.27 39.4358 17.986 39.1045C17.844 39.0571 17.6073 38.8678 17.4654 38.8205H16.708C15.7141 38.8205 15.2408 38.8205 14.5781 39.4831C14.4835 39.5778 13.7262 40.4298 13.6315 40.4771C13.5842 40.5717 13.3948 40.7137 13.3948 40.7137H13.2055C12.8742 40.7137 12.7322 40.5717 12.7322 40.2404C12.7322 40.0038 12.7322 39.9564 12.8269 39.8144C12.8742 39.6251 13.3948 39.0571 13.5842 38.8678C13.5842 38.8205 13.6315 38.6312 13.6315 38.5838L13.8208 38.2525C13.8682 37.9685 13.8682 37.6845 13.8682 37.3532C13.8682 35.9806 13.3475 34.9866 12.0696 34.466C11.9749 34.3713 11.0756 34.182 10.9809 34.0873C10.7443 33.9927 10.6023 33.8033 10.6023 33.5667C10.6023 33.188 11.0756 32.9514 11.2649 32.7147C11.4542 32.5727 12.0696 31.9574 12.1169 31.8627C12.2115 31.8154 12.4955 31.3421 12.5902 31.2001C12.8269 30.8214 12.8269 30.4428 12.8269 30.0641C12.8269 29.5908 12.8269 29.1175 12.6375 28.6915C12.5902 28.3602 12.2589 28.2182 12.2589 27.9342C12.2589 27.6029 12.5902 27.4609 12.8742 27.4609H12.9689C13.0162 27.4609 13.3475 27.6029 13.3948 27.6029C13.8208 27.6976 14.1995 27.7449 14.5781 27.7449C15.3828 27.7449 16.1401 27.4609 16.3294 26.5616C16.3767 25.9936 16.3767 25.331 17.0867 25.331C17.3707 25.331 17.6073 25.5676 17.8913 25.7096C18.27 25.8516 18.696 26.0883 19.0746 26.1829H19.7373C20.4946 26.1829 21.3939 26.0883 22.0092 25.5676L22.9558 24.621C23.1451 24.4317 23.3345 24.053 23.3818 23.7217V22.8224C23.3818 22.3491 23.4765 21.8284 23.2398 21.3551C22.9558 20.6925 22.6245 20.0772 22.0092 19.5565C21.5832 19.3672 21.5832 18.7992 19.4533 18.7046C18.7433 18.7046 18.0807 18.7046 17.4654 18.8466C16.3767 19.1779 15.2408 19.4619 14.4835 20.3612C14.2468 20.6925 14.1995 21.1185 13.7262 21.1185C13.5842 21.1185 13.5842 21.1185 13.3475 21.0711C13.2055 20.9765 12.2115 20.5978 12.0696 20.5505C11.7382 20.4558 11.4542 20.3612 11.1229 20.3612C9.84497 20.3612 8.23569 21.1185 8.14103 22.5857V24.337C8.14103 24.7157 7.85704 24.9523 7.57305 24.9523H7.38373C7.33639 24.9523 6.95774 24.8103 6.86308 24.8103C6.48443 24.7157 6.38976 24.7157 6.01111 24.7157C5.72712 24.7157 5.34847 24.7157 5.11181 24.8103C3.97585 25.189 3.83386 25.8516 3.83386 26.9403C3.83386 27.5556 4.07052 27.9815 4.35451 28.5022C4.73316 28.5022 5.20647 28.6915 5.20647 29.0702C5.20647 29.4962 4.73316 29.5908 4.44917 29.8275C4.35451 29.8748 4.11785 30.1115 4.07052 30.2061C3.45521 30.8688 2.88723 31.9574 2.88723 32.8567C2.88723 33.3773 3.07655 34.182 3.36054 34.608C3.73919 35.1286 4.59116 35.2233 4.59116 35.8386C4.59116 36.1226 4.25984 36.3592 4.21251 36.6906C4.07052 37.1165 4.07052 37.5899 4.07052 38.0632C4.07052 38.8205 4.21251 39.2465 4.4965 39.9564C5.01715 41.1871 5.63246 41.3764 6.95774 41.613C7.24173 41.5657 7.38373 41.2344 7.71505 41.2344ZM44.9258 44.8316C44.9258 43.9796 45.1625 43.2696 45.6358 42.6543C44.5471 41.897 44.2632 41.2817 44.2632 40.4298C44.2632 39.9091 44.4052 39.7198 44.5471 39.4358L44.7365 39.1045C43.7425 39.1045 42.5592 37.9685 41.8966 37.0692C41.2339 37.9685 40.7133 38.8678 39.3407 39.0098C39.7667 39.6251 40.098 40.3824 40.098 41.1871C40.098 41.9444 39.9087 42.7017 39.4353 43.4116C39.7193 44.027 39.956 44.5949 39.956 45.3049C39.956 46.6775 38.678 48.5708 37.2581 48.5708C36.6901 48.5708 36.0748 48.3815 35.5068 48.2868C34.9388 48.6654 34.3709 48.9021 33.4716 48.9021C32.0516 48.9021 30.0637 47.6242 30.0637 45.9675C30.0637 45.0682 30.537 44.1216 31.105 43.601C30.821 43.2223 30.5843 42.7963 30.5843 42.2284C30.5843 41.613 30.9157 41.0451 31.247 40.4771C30.4423 39.7671 29.9217 39.0098 29.9217 37.9212C29.9217 36.9745 30.7737 35.9333 31.4363 35.2233C29.827 34.2766 29.5904 32.8567 29.5904 32.3361C29.5904 31.3421 30.2057 30.5375 30.8683 29.8275C30.1583 29.4488 29.5904 28.7389 29.5904 27.8396C29.5904 27.1296 29.827 26.5143 30.679 25.8516C29.827 25.189 29.3064 24.5737 29.3064 23.485C29.3064 22.8697 29.1644 21.2131 31.3416 20.1245C31.4836 18.5626 32.8562 17.5686 34.6075 17.6633C36.2641 17.6633 37.6841 19.2252 37.4001 21.0238C38.678 21.3551 39.7193 22.8224 39.7193 24.195C39.7193 25.047 39.2933 25.5676 38.7727 26.1356C39.4353 27.0349 40.098 28.0289 40.098 29.2122C40.098 29.4488 40.0506 29.5435 40.0033 29.6855C39.956 29.7328 39.956 29.7801 39.956 29.9221C40.2873 29.7328 40.666 29.6382 41.0919 29.6382C41.9439 29.6382 42.7012 30.1115 43.4585 30.4901C44.2632 29.8275 45.2571 29.3068 46.2511 29.3068C49.091 29.3068 50.7949 31.7207 49.8483 33.898C51.1736 34.182 52.2622 34.7973 52.8302 36.0752C53.0668 36.6906 53.2562 37.2112 53.2562 37.8738C53.2562 38.3945 53.0668 38.8205 52.8302 39.2938C53.9661 39.9091 54.5341 41.1397 54.5341 42.3703C54.5341 43.317 54.2501 43.9323 53.7768 44.7843C53.8715 45.1629 54.0608 45.4942 54.0608 46.0149C54.0608 48.0975 52.6408 49.2334 50.4636 49.2334C48.523 49.2334 46.6297 48.9494 46.4404 47.0088C45.6358 46.4882 44.9258 45.8729 44.9258 44.8316ZM47.5764 46.4409C47.5764 47.7188 48.7123 48.1448 49.8956 48.1921C50.4163 48.1921 50.9842 48.0975 51.4102 48.0028C52.1202 47.8135 52.9248 46.6775 52.9248 45.9675C52.9248 45.4942 52.6882 45.2576 52.4989 45.0682C52.4515 44.9736 52.3569 45.0209 52.3569 44.7843C52.3569 44.5949 52.5935 44.3109 52.7828 44.2163C53.1615 43.6483 53.3508 43.0803 53.3508 42.3703C53.3508 41.6604 53.3035 40.9031 52.7828 40.5244C52.5935 40.3824 52.4042 40.3824 52.2622 40.3351C51.8362 40.2404 51.4102 40.1458 51.4102 39.6251C51.4102 39.3411 51.5522 39.0571 51.6942 38.9625C51.8835 38.6785 52.0729 38.2998 52.0729 37.8265C52.0729 36.5486 51.4102 35.3653 49.9903 35.1286C49.8483 35.0813 49.7063 35.0813 49.5643 35.0813C49.2803 35.0813 48.9963 35.0813 48.807 34.9866C48.5703 34.8446 48.4757 34.6553 48.4757 34.3713C48.4757 34.182 48.5703 33.9927 48.665 33.8033C48.807 33.5193 48.949 33.1407 48.949 32.8567C48.949 31.3894 47.4817 30.3955 46.2038 30.3955C45.6358 30.3955 44.9258 30.6794 44.4525 31.0581C44.0738 31.5314 43.7898 31.9574 43.4585 31.9574C43.1272 31.9574 42.8905 31.7207 42.7485 31.4368C42.2279 30.7741 41.4706 30.8214 41.0446 30.8214C40.098 30.8214 39.104 31.5787 38.3467 32.1941L37.9207 32.478C37.5421 32.478 37.3527 32.0047 37.3527 31.6734C37.3527 31.3894 37.5421 31.1054 37.9207 30.8688C38.394 30.4428 38.9147 29.9221 38.9147 29.1648C38.9147 28.4075 38.536 27.2242 37.8734 26.8929C37.7787 26.8929 37.6367 26.7983 37.5894 26.7983C37.3527 26.6563 37.2108 26.6089 37.2108 26.1829C37.2108 26.1356 37.2108 26.0883 37.3527 25.9463L38.394 24.8577C38.4887 24.763 38.5834 24.4317 38.5834 24.2424C38.5834 23.5797 38.0154 22.1598 37.2581 22.0651H36.4534C36.2168 22.0178 36.0748 21.7811 36.0748 21.5445C36.0748 21.3078 36.1221 21.1658 36.1695 20.9765C36.2168 20.7871 36.2641 20.6452 36.2641 20.4558C36.2641 19.6512 35.3175 18.7992 34.5129 18.7992C33.6609 18.7992 32.4776 19.0832 32.4303 20.0772V20.6452C32.4303 20.9765 31.9569 21.1185 31.7203 21.1658C31.6256 21.1658 31.5783 21.2131 31.5783 21.2131C30.821 21.8284 30.395 22.4438 30.395 23.485C30.395 24.2424 31.0103 24.621 31.531 24.9523C31.9096 25.2363 32.2883 25.473 32.2883 25.899C32.2883 26.2303 31.9569 26.4669 31.6256 26.7036C31.2943 26.9876 30.7737 27.3189 30.7737 27.8396C30.7737 28.4549 31.2943 28.7389 31.7203 28.9755C32.1463 29.1648 32.4303 29.3068 32.4303 29.6855C32.4303 29.8748 32.3356 30.0168 32.1463 30.1115L31.9569 30.2535C31.389 30.8688 30.7737 31.4368 30.7737 32.3834C30.7737 33.046 31.531 34.2766 32.5723 34.7026C32.8089 34.8446 32.9509 34.9866 32.9509 35.3179C32.9509 35.6966 32.7143 35.7913 32.4776 35.8859L31.9569 36.2646C31.6256 36.5959 31.0576 37.2112 31.0576 37.9212C31.0576 38.8205 31.673 39.2938 32.1936 39.7198C32.4776 39.9564 32.8089 40.2404 32.8089 40.4771C32.8089 40.8084 32.5723 40.9977 32.3356 41.1871C32.0516 41.4237 31.7203 41.6604 31.7203 42.2284C31.7203 42.5597 31.9096 42.7963 32.0989 43.033C32.2409 43.2223 32.4303 43.4116 32.4303 43.6956C32.4303 43.885 32.1936 44.1216 31.9569 44.4529C31.6256 44.8789 31.247 45.3522 31.247 46.1095C31.247 47.1508 32.5249 47.7188 33.5662 47.7661C34.3235 47.6715 34.4182 47.6242 34.4655 47.5295C34.7495 47.2455 35.0335 46.9142 35.3175 46.9142C35.6488 46.9142 35.8381 47.1508 36.1221 47.2455C36.5008 47.3875 36.8321 47.4348 37.2108 47.4348C38.3467 47.4348 38.8674 46.1569 38.8674 45.3049C38.8674 44.8789 38.7254 44.4529 38.4887 43.9796C38.394 43.7903 38.3467 43.743 38.2994 43.6956C38.1101 43.5063 38.0154 43.317 38.0154 43.0803C38.0154 42.9383 38.252 42.749 38.394 42.607C38.7727 42.2284 39.0094 41.755 39.0094 41.0924C39.0094 40.5244 38.5834 40.0511 38.2047 39.5778C37.8734 39.1045 37.5421 38.7258 37.5421 38.2052C37.5421 37.9685 37.7314 37.7319 37.9681 37.7319C38.1574 37.7319 38.3467 37.7792 38.536 37.8265C38.7254 37.8738 38.8674 37.9212 39.104 37.9212C40.0506 37.9212 40.666 36.9745 41.1393 36.1699C41.4706 35.6019 41.8019 35.1286 42.1806 35.1286C42.7012 35.1286 42.7485 35.6493 42.7485 35.9806V36.1699C42.9379 36.7379 43.5532 37.4479 44.0738 37.7319C44.2158 37.7792 44.5471 37.8265 44.8311 37.8265C45.7304 37.8738 46.8664 37.9212 46.8664 38.6312C46.8664 38.7731 46.8664 38.9625 46.7244 39.0098C46.1091 39.2938 45.3518 39.7671 45.3518 40.4298C45.3518 41.0924 46.1564 41.8024 46.7717 41.8024C47.1031 41.8024 47.529 41.613 47.529 42.2284C47.529 42.7963 47.245 42.891 46.9611 43.033V42.9857L46.5824 43.2696C46.2511 43.5063 46.0618 44.1689 46.0618 44.6896C46.0618 44.8789 46.0618 45.2576 46.1564 45.3996C46.2511 45.6362 46.5824 45.7782 46.9137 45.8729C47.245 45.9675 47.5764 46.0622 47.5764 46.4409ZM59.6108 44.9736C59.6108 44.9736 59.7055 44.4529 59.7528 44.2636C59.8474 44.0743 59.8948 43.9796 59.8948 43.8376C59.0428 42.9857 58.5222 41.897 58.5222 40.6664C58.5222 39.5778 58.8062 38.8205 59.6581 37.9685C58.9481 37.3059 58.5222 36.6432 58.5222 35.5073C58.5222 34.8446 58.8535 33.9453 59.2321 33.33C58.8535 32.6674 58.3802 32.0047 58.3802 31.1054C58.3802 29.8748 59.0428 28.9755 60.3208 28.7862C60.5574 27.2242 61.3147 26.5143 63.1607 26.5143C65.4799 26.4669 66.3319 27.8869 66.8999 29.3542C67.7045 28.9282 68.3198 28.9282 69.5031 28.9282C70.0711 27.5556 71.1597 27.1296 72.6743 27.1296C73.2423 27.1296 73.7156 27.7449 74.2836 27.7449C74.7096 27.7449 75.1355 27.6029 75.6562 27.6029C78.1648 27.6029 79.9634 29.2122 79.3007 31.3894C79.5847 31.6261 80.0107 32.0994 80.1054 33.4247C80.1054 35.8859 78.9221 37.3059 76.3188 37.3059C75.8929 37.3059 75.1829 37.0692 74.8042 36.8799C74.0943 37.4479 73.2896 37.7792 72.4376 37.7792C71.3017 37.7792 70.2604 37.4479 69.7397 36.4066C69.5504 36.5486 68.6985 36.9745 67.7045 36.6906C67.5625 37.6372 67.3732 38.2525 66.9945 39.1045C67.7518 39.9564 68.2251 40.7611 68.2251 41.8024C68.2251 43.175 67.7992 43.4116 67.3258 43.6956C67.0892 43.8376 66.8999 43.885 66.7579 44.1216C66.7105 45.7309 66.0006 46.8668 64.3913 47.4822C64.3913 47.4822 63.918 47.6242 63.492 47.6242C61.93 47.6242 59.6108 46.9615 59.6108 44.9736ZM60.7467 44.9736C60.7467 46.2042 62.356 46.4882 63.3973 46.4882C64.3439 46.4882 65.5272 45.9675 65.5272 44.8316V44.5003C65.2432 44.3583 65.1486 44.1689 65.1486 43.8376C65.1486 43.5063 65.5746 43.3643 65.9059 43.2696C66.4265 43.0803 67.0892 42.7963 67.0892 41.8024C67.0892 40.9031 66.5212 40.3351 66.0952 39.9091C65.8112 39.6724 65.5272 39.3885 65.5272 39.1045C65.5272 38.8205 65.6692 38.6785 65.9059 38.4418C66.1899 38.1578 66.5212 37.7792 66.5212 37.0219V36.5012C66.3319 36.3119 66.0006 35.7439 66.0006 35.5073C66.0006 35.1759 66.1899 34.8446 66.7105 34.8446C67.0418 34.8446 66.9472 34.9393 66.9945 34.9866C67.2312 35.2706 67.5625 35.6966 68.2725 35.6966C69.0298 35.6966 69.3138 34.7026 69.9764 34.7026C70.3551 34.7026 70.4497 34.9866 70.639 35.3653C70.8757 35.8859 71.2544 36.6906 72.4376 36.6906C73.053 36.6906 73.6209 36.1699 73.9996 35.7913C74.2362 35.5546 74.3309 35.4599 74.5202 35.4599C74.8516 35.4599 75.0882 35.6493 75.3722 35.8386C75.6089 35.9806 75.8929 36.2172 76.3188 36.2172C78.0701 36.2172 78.9694 35.2706 78.9694 33.5667C78.8274 32.5254 78.4961 32.1941 78.2594 32.0994C78.1174 32.0521 78.0228 32.0047 78.0228 31.7207C78.9694 29.4015 77.0288 28.3602 75.6562 28.5969C75.1829 28.6915 74.6622 28.9282 74.1416 28.9282C73.5736 28.9282 73.2896 28.2655 72.6743 28.2655C70.9704 28.2655 70.7337 29.0702 70.5444 29.6382C70.4024 30.0168 70.3077 30.3008 69.9764 30.3008C69.5978 30.3008 69.5031 30.2061 69.3138 30.1588C69.1718 30.1115 69.0298 30.0641 68.8878 30.0641C67.5625 30.0641 67.1838 30.6794 66.9472 31.0581C66.7579 31.2948 66.5212 31.5314 66.3319 31.5314C66.0952 31.5314 65.7639 31.5314 65.7639 31.2474V29.4962C65.6219 28.5022 64.2966 27.5082 63.3973 27.5082C61.5041 27.5082 61.3147 28.8808 61.2674 29.3542C61.2674 29.5435 61.1254 29.6855 61.1254 29.6855C60.3208 29.8275 59.5161 30.0641 59.5161 31.0108C59.5161 31.8154 60.2261 32.478 60.6048 32.8567C60.8414 33.046 60.9834 33.2354 60.9834 33.33C60.9834 33.756 60.8414 33.614 60.7467 33.7087C60.2734 34.0873 59.6108 34.608 59.6108 35.5073C59.6108 36.4066 60.2261 36.8326 60.6521 37.2112C60.9834 37.4479 61.2201 37.6845 61.2201 37.9685C61.2201 38.2525 60.9834 38.5365 60.6994 38.7731C60.2261 39.1991 59.6108 39.7671 59.6108 40.6664C59.6108 41.755 60.2734 42.465 60.7467 42.9383C61.0781 43.2696 61.2201 43.459 61.2201 43.743C61.2201 43.9323 61.0781 44.1216 60.9834 44.3109C60.8414 44.5003 60.7467 44.6896 60.7467 44.9736ZM83.4933 47.0562C83.4933 46.3935 83.6826 46.1095 84.0139 45.5889C83.1619 44.4529 82.7833 43.7903 82.7833 43.0803C82.7833 42.3703 83.3039 41.4237 83.9192 40.9031C83.2093 39.9564 82.736 38.7258 82.6886 37.4952C82.6413 36.2646 82.9726 34.9866 83.8719 34.04C83.4933 33.7087 83.1146 33.188 83.0673 32.4307C82.9253 30.0641 85.9545 29.2595 87.8478 29.2595C89.3624 29.2595 90.593 29.8275 90.735 31.2474C91.729 31.4841 92.6283 31.8627 92.6283 33.1407C92.6283 33.9453 92.0129 34.608 91.445 35.3653C92.3916 35.7439 92.6283 36.5012 92.6283 37.3059C92.6283 38.2052 92.1076 38.8205 91.587 39.5778C91.587 39.6724 91.7763 39.9091 92.1549 40.1458C92.7229 40.5244 93.5749 40.9504 93.5749 42.6543C93.5749 44.3109 92.5809 44.8316 91.9656 45.1156C92.1549 45.5889 92.3916 46.0149 92.3916 46.5829C92.3916 47.6242 91.6816 48.6181 90.309 48.6181C89.3624 48.6181 88.5577 48.3815 87.8478 48.0501C86.9958 48.4288 86.3805 48.6181 85.5285 48.6181C84.3926 48.6181 83.4933 48.0975 83.4933 47.0562ZM84.6292 46.9615C84.6292 47.4348 85.1499 47.6242 85.6705 47.6242C86.3805 47.6242 86.7591 47.2928 87.0905 47.0088C87.2798 46.8668 87.4691 46.6775 87.6111 46.6775C87.8478 46.6775 88.0844 46.8668 88.3684 47.0088C88.8891 47.2928 89.5517 47.6242 90.309 47.6242C90.9243 47.6242 91.2083 47.0088 91.2083 46.4882C91.2083 46.1569 91.019 45.9202 90.877 45.6836C90.6403 45.3996 90.4037 45.2102 90.4037 44.8789C90.4037 44.5476 90.6877 44.5003 91.0663 44.3109C91.587 44.1216 92.2969 43.8376 92.2969 42.607C92.2969 41.5184 91.6816 41.0451 91.1136 40.6664C90.6877 40.3824 90.309 40.1458 90.309 39.5778C90.309 39.1045 90.5457 38.8205 90.8297 38.4892C91.0663 38.1105 91.445 37.6845 91.445 37.3059C91.445 36.6432 90.8297 36.4066 90.3563 36.2646C90.025 36.1226 89.6464 35.8859 89.6464 35.5546C89.6464 35.2233 89.9777 35.034 90.309 34.7026C90.8297 34.3713 91.445 33.898 91.445 32.9987C91.445 32.2887 90.9243 32.1941 89.9777 32.3361C89.457 32.0521 89.457 31.8154 89.457 31.4841C89.457 31.1528 89.599 30.3955 87.8951 30.3955C85.7652 30.3955 84.2506 31.2474 84.2506 32.4307C84.2506 32.9987 84.9132 33.8507 85.5285 34.0873C85.4812 34.2293 85.1972 34.466 85.0552 34.608C84.1559 35.5073 83.8719 36.4066 83.8719 37.2585C83.8719 38.8205 84.9132 40.0984 85.2919 40.9031C85.4339 41.1397 85.2445 41.2344 84.9605 41.4237C84.3452 42.039 84.1086 42.3703 84.1086 43.2223C84.1086 43.885 84.5346 44.3583 84.9132 44.7369C85.2919 45.0209 85.4339 45.2102 85.4339 45.4469C85.4339 45.8256 85.1972 46.1095 84.9132 46.2989C84.7712 46.4882 84.6292 46.7249 84.6292 46.9615ZM89.1257 27.8396C88.0371 27.8396 87.4218 27.5082 86.7591 26.7036C86.4752 26.8929 85.8125 27.2242 85.0552 27.2242C83.7773 27.2242 82.5466 25.9936 82.5466 24.763C82.5466 23.9584 82.8306 23.5324 83.3513 22.8697C83.1619 22.4438 82.9253 21.9231 82.9253 21.4971C82.9253 19.8878 84.2506 18.7519 85.7652 18.7519C86.6645 18.7519 87.6111 18.8939 88.1318 19.8405C88.6524 19.5565 89.2204 19.3672 89.9304 19.3672C91.5396 19.3672 92.7703 20.3612 92.7703 21.9231C92.7703 23.3431 92.2496 23.911 91.2083 24.337C91.3976 24.7157 91.587 25.1417 91.587 25.5203C91.587 26.7509 90.6403 27.8396 89.1257 27.8396ZM86.8065 25.473C87.1378 25.473 87.3271 25.6623 87.5638 25.9463C87.8951 26.3249 88.2738 26.8456 89.1257 26.8456C89.8357 26.8456 90.4983 26.2776 90.4983 25.615C90.4983 25.2363 90.309 24.9523 90.167 24.7157C90.025 24.479 89.883 24.4317 89.883 24.195C89.883 24.0057 89.883 23.7217 90.1197 23.6744C91.729 22.9644 91.7763 22.3491 91.7763 21.9231C91.7763 21.0238 91.1136 20.3612 90.025 20.3612C89.5517 20.3612 89.0784 20.5978 88.7944 20.7871C88.4631 20.9765 88.2738 21.1658 87.9424 21.1658C87.6111 21.1658 87.4218 20.9765 87.2798 20.6925C87.0431 20.2665 86.7118 19.7459 85.6705 19.7459C84.6766 19.7459 84.0139 20.5978 84.0139 21.4025C84.0139 21.9704 84.2979 22.3018 84.5819 22.5384C84.7712 22.6804 84.9605 22.9171 84.9605 23.2484L84.8659 23.485C84.8659 23.5797 84.8185 23.627 84.7239 23.627C83.9666 23.485 83.5406 24.1477 83.5406 24.763C83.5406 25.8043 84.4399 26.2303 85.0552 26.2303C85.5285 26.2303 85.7652 26.041 86.0018 25.8043C86.2858 25.6623 86.4752 25.473 86.8065 25.473ZM102.47 48.9494C101.192 48.9494 100.34 48.4761 100.15 47.2928C97.4997 47.6715 95.6538 46.3935 95.6538 44.0743C95.6538 42.7963 96.7424 40.8084 98.3044 40.8084C98.9197 40.8084 99.4403 40.9504 100.008 41.3291C100.529 40.1458 101.334 39.6251 102.517 39.6251C103.416 39.6251 104.268 40.1931 104.694 40.7611C104.836 40.5244 105.12 40.3824 105.451 40.3351C105.167 40.0038 104.978 39.5778 104.931 39.1518C104.647 39.1518 104.363 39.2465 103.795 39.2465C101.712 39.2465 101.949 37.5899 101.854 37.3532C99.819 37.1639 98.0204 35.6966 98.0204 33.2827C98.0204 32.6674 98.257 32.0994 98.4464 31.7207V31.7681L98.5883 31.3421C98.5883 31.1528 98.4937 30.8214 98.3517 30.5375C98.2097 30.2061 98.0204 29.8275 98.0204 29.3542C98.0204 26.6563 100.434 24.9997 102.896 25.1417C103.038 24.0057 103.984 23.2011 106.256 23.1537C107.108 23.1537 108.433 23.1537 109.569 24.479C111.226 24.479 113.214 24.6683 113.214 26.8929C113.214 27.6502 112.74 28.4549 112.031 28.8335C112.362 29.3068 112.598 29.7328 112.598 30.4901C112.598 31.9574 111.131 32.478 109.806 32.478C109.001 32.478 107.865 32.2887 107.203 31.9101C107.108 32.1941 106.966 32.5254 106.777 32.8567C107.534 33.33 108.102 33.8033 108.67 34.5133C109.001 34.4186 109.427 34.3713 109.948 34.3713C111.368 34.3713 112.93 35.2233 112.93 36.8799C112.93 37.1639 112.882 37.4005 112.835 37.7319C113.734 38.7258 114.776 39.8144 114.776 41.2817C114.776 42.7017 113.64 43.5536 113.072 44.027C112.93 44.1216 112.835 44.2163 112.835 44.2163C112.835 44.4056 112.835 44.5949 112.882 44.7843C112.882 46.7722 111.226 47.9555 109.096 47.9555C108.386 47.9555 107.629 47.7188 106.682 47.3875C105.499 48.5235 104.126 48.9494 102.47 48.9494ZM101.192 46.3462C101.192 46.9142 101.192 47.8608 102.47 47.8608C103.416 47.8608 104.41 47.7188 105.499 46.7722C105.925 46.3462 106.398 45.9202 106.398 45.9202C106.871 46.3462 107.629 46.8195 109.096 46.8195C110.327 46.8195 112.078 46.2515 111.699 44.7369C111.605 44.5476 111.557 44.3109 111.557 44.0743C111.557 43.6483 111.936 43.4116 112.409 43.1277C112.977 42.749 113.64 42.2757 113.64 41.2817C113.64 40.3351 112.835 39.4831 112.22 38.9151C111.841 38.6312 111.557 38.2525 111.557 37.9685C111.557 37.5899 111.841 37.3059 111.841 36.8799C111.841 35.8859 110.8 35.4599 109.948 35.4599C109.759 35.4599 109.522 35.5546 109.285 35.6966C109.001 35.8386 108.67 36.0752 108.055 35.8386C108.055 35.8386 107.865 35.7439 107.865 35.5073C107.203 34.324 106.824 34.182 105.972 33.8033C105.404 33.5667 104.931 33.33 104.931 33.046C104.931 32.7147 105.309 32.478 105.641 32.2414C105.735 32.1941 105.877 32.0521 105.925 31.9574C106.209 31.6734 106.161 31.2948 106.161 30.7741C106.161 30.4428 106.398 30.1588 106.777 30.1588C107.061 30.1588 107.108 30.2061 107.155 30.2535C107.818 31.1528 108.765 31.4368 109.948 31.4368C111.084 31.4368 111.463 30.8214 111.463 30.3481C111.463 29.8275 110.989 29.4015 110.705 29.2122C110.469 29.0228 110.232 28.7862 110.232 28.5969C110.232 28.2655 110.563 28.0762 110.989 27.9815C111.463 27.8396 112.078 27.6029 112.078 26.8929C112.078 25.473 110.232 25.5203 109.096 25.615H108.954L108.765 25.4256C108.197 24.1477 106.824 24.1477 106.256 24.1477C104.978 24.1477 103.889 24.621 103.889 26.041C103.889 26.3723 103.511 26.3723 103.322 26.3723C103.085 26.3723 102.896 26.3723 102.706 26.3249C102.517 26.2776 102.328 26.2303 102.186 26.2303C100.482 26.2303 99.0617 27.6502 99.0617 29.3542C99.0617 29.9695 99.4876 30.3955 99.819 30.7268C100.056 30.9634 100.198 31.1054 100.198 31.3421C100.198 31.5314 100.008 31.6734 99.819 31.7681C99.535 31.9574 99.0617 32.2887 99.0617 33.4247C99.0617 34.7973 100.245 36.3119 101.807 36.3119C101.949 36.3119 102.091 36.3119 102.28 36.2646C102.943 36.0752 103.038 36.5486 102.99 37.1165C102.99 38.1105 103.7 38.1105 103.795 38.1105C104.363 38.1105 104.599 38.1105 105.167 37.9212C105.546 37.7319 105.546 37.6372 105.877 37.5899C106.209 37.5425 106.445 37.6845 106.445 38.0158C106.445 38.4892 106.209 38.6312 106.209 39.0571C106.209 39.5778 106.445 39.8144 106.729 40.0038C107.013 40.2404 107.013 40.2878 107.013 40.7611C107.013 41.1397 106.587 41.2817 106.067 41.1871C105.593 41.1871 105.404 41.5184 105.215 41.8497C104.978 42.2284 104.789 42.5597 104.457 42.5597C104.126 42.5597 103.984 42.2284 103.842 41.755C103.7 41.2344 103.227 40.7137 102.517 40.7137C101.334 40.7137 101.239 41.3764 101.05 41.9917C100.908 42.4177 100.766 42.8437 100.387 42.8437C100.103 42.8437 99.819 42.6543 99.535 42.4177C99.251 42.181 98.825 41.9444 98.4464 41.9444C97.4051 41.9444 96.7424 43.3643 96.7424 44.2163C96.7424 45.4942 97.9257 46.2515 99.1563 46.2515C99.3456 46.2515 99.5823 46.1569 99.819 46.0622C100.15 45.9675 100.434 45.7782 100.86 45.7782C101.192 45.7782 101.192 46.1569 101.192 46.3462ZM131.872 47.4822C131.398 47.8135 130.878 48.1921 130.262 48.1921C128.842 48.1921 127.896 47.4348 127.943 45.4469C125.719 46.1095 123.589 45.0682 123.589 42.3703C123.589 41.613 123.825 40.8557 124.393 40.2404C123.589 40.0511 123.163 39.4358 123.068 38.7731C123.021 38.3945 123.115 37.9685 123.399 37.4952C122.405 37.4005 121.932 37.1165 121.269 36.3592C120.512 36.7852 119.802 36.9745 119.139 37.0219C117.909 37.1165 116.773 36.4539 116.773 34.9393C116.773 34.3713 117.057 33.756 118.051 33.2354C117.72 32.62 117.625 32.2414 117.625 31.6261C117.625 30.3481 118.24 29.1175 119.66 29.1175C120.133 29.1175 120.749 29.3068 121.175 29.5435C121.743 28.8335 122.074 28.6442 123.068 28.5495C122.973 28.0289 122.926 27.6029 122.973 27.3189C122.973 26.8456 123.21 26.3723 124.062 25.757C123.494 25.0943 123.021 24.621 123.021 23.5324C123.021 22.3964 123.541 21.5445 124.961 21.1658C125.009 20.6452 125.293 18.7519 127.612 18.8466C129.41 18.9412 129.505 20.2665 129.6 21.0711C130.972 21.6391 131.966 22.1598 131.966 23.911C131.966 24.2897 131.872 24.621 131.777 24.905C131.682 25.1417 131.588 25.3783 131.588 25.5676L131.777 25.7096C131.919 25.8516 132.156 26.0883 132.203 26.3249V26.2776C132.392 26.6563 132.345 26.7983 132.345 27.1296V27.5082C132.345 27.8869 132.25 28.1235 132.156 28.4075C132.061 28.5969 131.966 28.6915 131.966 28.8808C133.244 28.8808 133.718 29.0702 134.806 30.0168C135.185 29.4962 135.8 29.4015 136.179 29.4015C137.504 29.4015 138.545 30.7268 138.545 32.0047C138.545 32.5727 137.883 33.4247 137.457 33.8507C137.599 35.5073 137.457 37.2585 135.327 37.2585C134.57 37.2585 134.096 37.0219 133.576 36.4066C132.913 36.8799 131.919 37.1165 131.067 36.8326C131.209 37.1639 131.493 38.1105 131.02 38.5838C131.682 38.6785 132.108 39.2938 132.014 40.1458C132.676 39.8144 133.434 39.5778 134.286 40.0984C134.664 39.2938 135.564 39.1045 136.416 39.1045C137.362 39.1045 138.356 39.6251 138.593 40.6191C138.735 41.0451 138.687 41.755 138.403 42.181C138.829 42.5597 139.066 42.891 139.161 43.3643C139.492 45.0682 138.072 46.7722 135.895 46.5355C135.942 47.4348 135.28 48.5708 133.954 48.5708C133.102 48.5708 132.392 48.1448 131.872 47.4822ZM135.185 31.2001C134.996 31.3894 134.806 31.4841 134.57 31.4841C134.333 31.4841 134.002 31.2474 133.812 30.9634C133.434 30.5375 133.008 30.0168 132.392 30.0168C132.014 30.0168 131.73 30.1115 131.54 30.2061C131.114 30.3481 130.736 30.4901 130.546 30.4901C129.836 30.4901 129.836 30.0168 129.836 29.4488C129.836 29.4015 129.884 29.3542 129.931 29.3068C129.931 29.3068 131.351 28.4075 131.351 27.5082C131.351 26.9403 131.067 26.6089 130.783 26.3249C130.546 26.1356 130.357 25.899 130.357 25.615C130.357 25.331 130.546 24.905 130.688 24.5737C130.783 24.3843 130.83 24.195 130.83 23.911C130.83 22.6804 130.168 22.0651 128.89 22.3018C128.7 22.3018 128.464 22.0651 128.416 21.8758C128.464 21.4025 128.464 21.0238 128.416 20.6452C128.369 20.1245 128.038 19.9352 127.612 19.9352C126.949 19.9352 126.097 20.4085 126.05 21.5445C126.05 21.7811 125.861 22.1124 125.719 22.1598C125.719 22.1598 125.34 22.3018 125.151 22.3491C124.583 22.5384 124.109 22.6804 124.109 23.5324C124.109 24.195 124.583 24.5737 125.009 24.9523C125.293 25.189 125.577 25.5203 125.577 25.757C125.577 26.1829 125.245 26.3723 124.867 26.6089C124.441 26.8456 123.967 27.0822 123.967 27.8869C123.967 27.9342 124.109 28.3129 124.393 29.1648C124.393 29.5908 124.393 29.8275 123.825 29.8275C123.21 29.8275 123.636 29.7801 122.973 29.7801C122.5 29.7801 122.216 30.1588 122.027 30.4428C121.79 30.7268 121.601 31.0108 121.317 31.0108C120.891 31.0108 120.796 30.7741 120.512 30.5375C120.323 30.3955 120.133 30.2535 119.613 30.2535C118.808 30.3008 118.619 31.2474 118.619 31.5787C118.619 32.5254 119.329 33.046 119.613 33.5667C118.098 34.04 117.862 34.182 117.862 35.0813C117.862 35.8386 118.619 36.0279 119.281 36.0279C119.802 36.0279 120.559 35.4599 121.175 35.034L121.506 34.892C121.979 34.892 122.027 35.1759 122.216 35.4599C122.358 35.7913 122.642 36.2646 123.447 36.2646C123.873 36.2646 123.967 36.0752 124.488 36.0752C124.819 36.0752 125.056 36.3119 125.056 36.6432C125.056 37.5899 124.204 37.5899 124.204 38.5365C124.204 39.2938 125.103 39.3411 125.671 39.3885C126.145 39.4358 126.239 39.9564 125.813 40.3351C124.819 41.0924 124.725 41.6604 124.725 42.465C124.725 43.7903 125.719 44.5003 126.855 44.5003C127.423 44.5003 127.848 43.9796 128.464 43.9796C129.268 43.9796 129.079 44.5476 129.079 45.1629C129.079 47.7661 130.688 46.9615 131.114 46.3462C131.304 46.0622 131.398 45.7309 131.919 45.7309C132.108 45.7309 132.25 45.9202 132.392 46.2042C132.582 46.6302 132.866 47.4348 133.954 47.4348C134.475 47.4348 134.759 47.0088 134.759 46.4882V45.5416C134.759 45.4469 134.854 45.3522 134.948 45.3522L135.8 45.4942C137.267 45.7309 138.119 44.6896 138.119 43.9796C138.119 42.7963 136.983 43.0803 136.983 42.3703C136.983 42.0864 137.125 41.897 137.315 41.6604C137.457 41.471 137.599 41.2817 137.599 40.9977C137.599 40.4771 136.794 40.1931 136.274 40.1931C135.8 40.1931 135.374 40.5717 135.185 40.9031C134.996 41.1871 134.664 41.5184 134.475 41.5184C134.191 41.5184 133.954 41.3291 133.812 41.2344C133.67 41.1397 133.528 41.0451 133.197 41.0451C132.676 41.0451 132.25 41.3291 131.872 41.5657C131.635 41.6604 131.02 41.8024 130.972 41.3291C131.114 40.4298 130.878 39.5305 130.215 39.5305C129.884 39.5305 129.363 39.1045 129.742 38.6312C130.12 38.1578 130.073 38.1105 130.073 37.5425C130.073 37.1639 129.884 36.7852 129.742 36.4066C129.647 36.0752 129.931 35.4126 130.641 35.6019C131.73 36.2172 132.629 35.6966 132.771 35.5073C132.96 35.2233 133.102 34.892 133.481 34.892C133.812 34.892 134.002 35.1759 134.238 35.4599C134.428 35.7439 134.759 36.1226 135.422 36.1226C136.132 36.1226 136.321 35.6019 136.321 34.8446C136.321 34.608 136.321 34.4186 136.274 34.182C136.274 33.9927 136.226 33.8033 136.226 33.614C136.226 33.188 136.51 32.9987 136.841 32.7147C137.125 32.5254 137.457 32.2414 137.457 31.9101C137.457 31.2948 136.794 30.4901 136.179 30.4901C135.706 30.4901 135.516 30.7741 135.185 31.2001Z" fill="white"/>
</svg>
