<svg width="19" height="19" viewBox="0 0 19 19" fill="none" xmlns="http://www.w3.org/2000/svg">
<rect width="19" height="19" rx="9.5" fill="white"/>
<path d="M11.4324 9.278C11.8804 9.53933 12.2351 9.894 12.4964 10.342C12.7578 10.7807 12.8884 11.2193 12.8884 11.658C12.8884 12.2273 12.7438 12.736 12.4544 13.184C12.1651 13.632 11.7638 13.982 11.2504 14.234C10.7371 14.486 10.1491 14.612 9.48644 14.612C8.8331 14.612 8.24977 14.486 7.73644 14.234C7.23244 13.9727 6.83577 13.6133 6.54644 13.156C6.2571 12.6987 6.11244 12.1807 6.11244 11.602H7.44244C7.44244 12.1433 7.63377 12.5867 8.01644 12.932C8.3991 13.268 8.8891 13.436 9.48644 13.436C10.1024 13.436 10.6064 13.268 10.9984 12.932C11.3904 12.5867 11.5864 12.1433 11.5864 11.602C11.5864 11.0793 11.3904 10.6547 10.9984 10.328C10.6158 10.0013 10.1211 9.838 9.51444 9.838H8.78644V8.704H9.52844C10.0884 8.704 10.5458 8.55467 10.9004 8.256C11.2551 7.948 11.4324 7.56067 11.4324 7.094C11.4324 6.60867 11.2598 6.21667 10.9144 5.918C10.5691 5.61 10.1258 5.456 9.58444 5.456C9.0431 5.456 8.59977 5.61 8.25444 5.918C7.9091 6.226 7.73644 6.62267 7.73644 7.108H6.40644C6.40644 6.55733 6.54177 6.06733 6.81244 5.638C7.0831 5.20867 7.45644 4.87733 7.93244 4.644C8.41777 4.40133 8.96844 4.28 9.58444 4.28C10.1911 4.28 10.7324 4.40133 11.2084 4.644C11.6938 4.87733 12.0671 5.204 12.3284 5.624C12.5991 6.044 12.7344 6.52 12.7344 7.052C12.7344 7.45333 12.6178 7.85933 12.3844 8.27C12.1511 8.68067 11.8338 9.01667 11.4324 9.278Z" fill="#151723"/>
</svg>
