<svg width="19" height="19" viewBox="0 0 19 19" fill="none" xmlns="http://www.w3.org/2000/svg">
<rect width="19" height="19" rx="9.5" fill="white"/>
<path d="M6.37581 13.366C6.65581 13.0953 7.10381 12.68 7.71981 12.12C8.49448 11.42 9.11515 10.832 9.58181 10.356C10.0578 9.88 10.4591 9.39467 10.7858 8.9C11.1125 8.40533 11.2758 7.94333 11.2758 7.514C11.2758 6.90733 11.1031 6.41267 10.7578 6.03C10.4125 5.64733 9.96915 5.456 9.42781 5.456C9.02648 5.456 8.63448 5.59133 8.25181 5.862C7.87848 6.13267 7.59848 6.48267 7.41181 6.912L6.23581 6.408C6.50648 5.77333 6.94048 5.25533 7.53781 4.854C8.13515 4.45267 8.76515 4.252 9.42781 4.252C10.0438 4.252 10.5898 4.392 11.0658 4.672C11.5511 4.94267 11.9291 5.32533 12.1998 5.82C12.4705 6.31467 12.6058 6.87933 12.6058 7.514C12.6058 8.13933 12.4098 8.76933 12.0178 9.404C11.6351 10.0387 11.1731 10.6267 10.6318 11.168C10.0998 11.7 9.40448 12.3393 8.54581 13.086L8.22381 13.366H12.7738V14.528H6.51581L6.37581 13.366Z" fill="#151723"/>
</svg>
