<svg width="19" height="18" viewBox="0 0 19 18" fill="none" xmlns="http://www.w3.org/2000/svg">
<path fill-rule="evenodd" clip-rule="evenodd" d="M9.5 0C4.52944 0 0.5 4.02944 0.5 9C0.5 13.9706 4.52944 18 9.5 18C14.4706 18 18.5 13.9706 18.5 9C18.5 4.02944 14.4706 0 9.5 0ZM11.6657 6.6882C11.9229 6.35486 12.4015 6.29309 12.7349 6.55024C13.0682 6.8074 13.13 7.2861 12.8729 7.61944L9.8198 11.5772C9.7157 11.7122 9.5943 11.8697 9.47217 11.9889C9.32663 12.1309 9.0862 12.314 8.73666 12.3313C8.38712 12.3486 8.12979 12.1901 7.97093 12.0632C7.8376 11.9567 7.70123 11.8119 7.58436 11.6878L6.17617 10.1943C5.88735 9.8879 5.90154 9.4055 6.20786 9.1167C6.51419 8.82784 6.99664 8.84203 7.28546 9.1484L8.65079 10.5964L11.6657 6.6882Z" fill="#184E40"/>
</svg>
