<svg width="21" height="20" viewBox="0 0 21 20" fill="none" xmlns="http://www.w3.org/2000/svg">
<path d="M4.8302 3.2627C1.48357 5.04439 0.5 8.28973 0.5 10.0521C0.5 12.5651 2.5 18.0937 10.5 18.0937C13.7048 18.0937 15.9467 17.2065 17.4829 15.9813L13.1436 11.6194C12.6919 12.4879 11.8107 13.0677 10.5 13.0677C8.5 13.0677 7.5 11.7176 7.5 10.0521C7.5 8.89955 7.97885 7.89805 8.93655 7.39045L4.8302 3.2627Z" fill="#184E40"/>
<path d="M13.4945 9.83963C13.4155 8.33174 12.4876 7.1292 10.7108 7.04143L6.31995 2.62769C7.48635 2.24022 8.8684 2.01025 10.5 2.01025C18.5 2.01025 20.5 7.5389 20.5 10.052C20.5 11.2896 20.0149 13.2587 18.5669 14.9385L13.4945 9.83963Z" fill="#184E40"/>
<path d="M0.763211 0.223578C1.05459 -0.0693176 1.527 -0.0693176 1.81838 0.223578L20.2225 18.7236C20.5139 19.0165 20.5139 19.4914 20.2225 19.7843C19.9311 20.0772 19.4587 20.0772 19.1673 19.7843L0.763211 1.28425C0.471833 0.991349 0.471833 0.516473 0.763211 0.223578Z" fill="#184E40"/>
</svg>
